# xmcd
#
# Track frame offsets:
#	150
#	14325
#	35340
#	56082
#	74960
#	89217
#	103535
#	124715
#	140797
#	160760
#	175447
#	191762
#	216080
#	238600
#	259230
#	280332
#	302457
#	320287
#
# Disc length: 4521 seconds
#
# Revision: 1
# Processed by: cddbd v1.5.1PL0 Copyright (c) Steve Scherf et al.
# Submitted via: CDex 1.50Beta5
#
DISCID=1511a712
DTITLE=Various Artist - フォークポップスグラフィティ15
DYEAR=1994
DGENRE=Pop
TTITLE0=松山千春/旅立ち
TTITLE1=高木麻早/ひとりぼっちの部屋
TTITLE2=田山雅充/春うらら
TTITLE3=もとまろ/サルビアの花
TTITLE4=小坂恭子/想い出まくら
TTITLE5=N.S.P./夕暮れ時はさびしそう
TTITLE6=山崎ハコ/織江の唄
TTITLE7=Char/気絶するほど悩ましい
TTITLE8=世良公則＆ツイスト/あんたのバラード
TTITLE9=松山千春/季節の中で
TTITLE10=斉藤哲夫/いまのキミはピカピカに光って
TTITLE11=円広志/夢想花
TTITLE12=松山千春/窓
TTITLE13=松原みき/真夜中のドア〜Stay With Me〜
TTITLE14=松山千春/恋
TTITLE15=クリスタルキング/大都会
TTITLE16=伊丹哲也＆Side By Side/街が泣いてた
TTITLE17=THE ALFEE/星空のディスタンス
EXTD=
EXTT0=
EXTT1=
EXTT2=
EXTT3=
EXTT4=
EXTT5=
EXTT6=
EXTT7=
EXTT8=
EXTT9=
EXTT10=
EXTT11=
EXTT12=
EXTT13=
EXTT14=
EXTT15=
EXTT16=
EXTT17=
PLAYORDER=
